<?xml version="1.0" ?><svg id="Layer_1" style="enable-background:new 0 0 512 512;" version="1.1" viewBox="0 0 512 512" xml:space="preserve" xmlns="http://www.w3.org/2000/svg" xmlns:xlink="http://www.w3.org/1999/xlink"><style type="text/css">
	.st0{fill:#1EF6F6;}
	.st1{fill:#FDDD7B;}
	.st2{fill:#EAF3F2;}
	.st3{fill:#D4FF93;}
	.st4{fill:#FD535F;}
	.st5{stroke:#000000;stroke-width:2;stroke-linecap:round;stroke-linejoin:round;stroke-miterlimit:10;}
	.st6{fill:none;stroke:#000000;stroke-width:2;stroke-linecap:round;stroke-linejoin:round;stroke-miterlimit:10;}
	.st7{fill:#1EF6F6;stroke:#000000;stroke-width:2;stroke-linecap:round;stroke-linejoin:round;stroke-miterlimit:10;}
</style><g><g><polyline class="st2" points="512.15,164.47 512.15,52.78 -0.15,52.78 -0.15,164.47 512.15,164.47   "/><path d="M512.15,172.47H-0.15c-4.42,0-8-3.58-8-8V52.77c0-4.42,3.58-8,8-8h512.3c4.42,0,8,3.58,8,8v111.7    C520.16,168.89,516.58,172.47,512.15,172.47z M7.85,156.46h496.29V60.78H7.85V156.46z"/></g><g><circle class="st1" cx="63.7" cy="108.61" r="26.68"/><path d="M63.7,143.3c-19.13,0-34.68-15.56-34.68-34.68c0-19.13,15.56-34.69,34.68-34.69s34.69,15.56,34.69,34.69    C98.39,127.74,82.83,143.3,63.7,143.3z M63.7,89.94c-10.3,0-18.68,8.38-18.68,18.68s8.38,18.68,18.68,18.68    c10.3,0,18.68-8.38,18.68-18.68S74,89.94,63.7,89.94z"/></g><g><circle class="st1" cx="149.08" cy="108.61" r="26.68"/><path d="M149.09,143.3c-19.13,0-34.68-15.56-34.68-34.68c0-19.13,15.56-34.69,34.68-34.69s34.68,15.56,34.68,34.69    C183.77,127.74,168.21,143.3,149.09,143.3z M149.09,89.94c-10.3,0-18.68,8.38-18.68,18.68s8.38,18.68,18.68,18.68    s18.68-8.38,18.68-18.68S159.38,89.94,149.09,89.94z"/></g><g><circle class="st1" cx="234.47" cy="108.61" r="26.68"/><path d="M234.47,143.3c-19.13,0-34.69-15.56-34.69-34.68c0-19.13,15.56-34.69,34.69-34.69s34.68,15.56,34.68,34.69    C269.16,127.74,253.6,143.3,234.47,143.3z M234.47,89.94c-10.3,0-18.68,8.38-18.68,18.68s8.38,18.68,18.68,18.68    c10.3,0,18.68-8.38,18.68-18.68S244.77,89.94,234.47,89.94z"/></g><g><path class="st2" d="M437.09,81.13h-94.72c-15.22,0-27.56,12.34-27.56,27.56c0,15.22,12.34,27.56,27.56,27.56h94.72    c15.22,0,27.56-12.34,27.56-27.56C464.66,93.47,452.32,81.13,437.09,81.13z"/><path d="M437.09,144.27h-94.72c-19.61,0-35.57-15.96-35.57-35.57s15.95-35.57,35.57-35.57h94.72c19.61,0,35.57,15.95,35.57,35.57    S456.7,144.27,437.09,144.27z M342.37,89.14c-10.79,0-19.56,8.77-19.56,19.56c0,10.79,8.77,19.56,19.56,19.56h94.72    c10.79,0,19.56-8.77,19.56-19.56c0-10.78-8.77-19.56-19.56-19.56H342.37z"/></g><g><polyline class="st0" points="512.15,459.22 512.15,164.47 -0.15,164.47 -0.15,459.22 512.15,459.22   "/><path d="M512.15,467.23H-0.15c-4.42,0-8-3.58-8-8V164.47c0-4.42,3.58-8,8-8h512.3c4.42,0,8,3.58,8,8v294.76    C520.16,463.65,516.58,467.23,512.15,467.23z M7.85,451.22h496.29V172.47H7.85V451.22z"/></g><g><path class="st5" d="M117.07,311.93l70.56-36.34v10.49l-59.46,29.81v0.3l59.46,29.8v10.49l-70.56-36.35V311.93z"/><path class="st5" d="M229.77,362.57l42.42-110.25h10.34l-42.58,110.25H229.77z"/><path class="st5" d="M394.92,320.29l-70.56,36.19v-10.49l59.92-29.8v-0.3l-59.92-29.81v-10.49l70.56,36.19V320.29z"/></g></g></svg>