<svg height="400pt" viewBox="0 -7 400.00008 400" width="400pt" xmlns="http://www.w3.org/2000/svg"><path d="m208.25 139.53125 2.921875 10.71875h-5.84375zm0 0" fill="#6fe3ff"/><path d="m236.011719 141.410156v.441406c0 2.71875-1.363281 4-3.601563 4h-3.960937v-8.441406h3.960937c2.238282 0 3.601563 1.28125 3.601563 4zm0 0" fill="#6fe3ff"/><path d="m258.769531 141.410156v.441406c0 2.71875-1.359375 4-3.597656 4h-3.960937v-8.441406h3.960937c2.238281 0 3.597656 1.28125 3.597656 4zm0 0" fill="#6fe3ff"/><path d="m283.089844 187.53125 2.921875 10.71875h-5.839844zm0 0" fill="#6fe3ff"/><path d="m263.289062 189.410156v10.359375c0 2.71875-1.359374 4-3.597656 4h-3.5625v-18.359375h3.5625c2.238282 0 3.597656 1.28125 3.597656 4zm0 0" fill="#6fe3ff"/><path d="m190.609375 185.410156c2.242187 0 3.601563.917969 3.601563 3.71875 0 2.800782-1.359376 3.722656-3.601563 3.722656h-3.960937v-7.441406zm0 0" fill="#6fe3ff"/><path d="m157.371094 185.410156c1.519531 0 2.277344 1.398438 2.277344 2.800782 0 1.359374-.757813 2.757812-2.277344 2.757812h-4.199219v-5.558594zm0 0" fill="#6fe3ff"/><path d="m160.371094 199.449219v.640625c0 2.558594-1.199219 3.679687-3.199219 3.679687h-4v-8h4c2 0 3.199219.960938 3.199219 3.679688zm0 0" fill="#6fe3ff"/><path d="m330.960938 112.46875v92.953125l-93.980469 57.839844-22.332031 13.738281c-8.980469 5.53125-20.3125 5.527344-29.289063-.011719l-22.53125-13.898437-93.789063-57.878906v-107.859376c.003907-12.34375 10.007813-22.347656 22.351563-22.351562h217.21875c12.34375.003906 22.347656 10.007812 22.351563 22.351562zm0 0" fill="#6fe3ff"/><path d="m391.628906 377.679688.199219.191406c-5.222656 5.25-12.328125 8.199218-19.738281 8.1875h-344.179688c-7.503906.011718-14.691406-3.015625-19.929687-8.386719l154.808593-114.511719.039063-.070312 22.53125 13.898437c8.976563 5.539063 20.308594 5.542969 29.289063.011719l22.332031-13.738281.230469.367187zm0 0" fill="#e48e66"/><path d="m330.960938 205.421875 69.039062-42.492187v195.210937c.011719 7.402344-2.929688 14.503906-8.171875 19.730469l-.199219-.191406-154.417968-114.050782-.230469-.367187zm0 0" fill="#f8ec7d"/><path d="m400 162.929688-69.039062 42.492187v-92.953125zm0 0" fill="#e48e66"/><path d="m315.691406 182.53125c.007813.148438-.019531.300781-.082031.4375l-8.238281 13.722656c-.105469.167969-.164063.359375-.160156.558594v10.039062c0 1.28125-1.5625 1.921876-3.121094 1.921876s-3.121094-.640626-3.121094-1.921876v-10.039062c.003906-.199219-.054688-.390625-.160156-.558594l-8.277344-13.722656c-.0625-.136719-.089844-.289062-.082031-.4375 0-1.480469 2.519531-2.5625 4.242187-2.5625.789063-.050781 1.519532.421875 1.796875 1.160156l5.601563 10.28125 5.558594-10.28125c.273437-.746094 1.007812-1.222656 1.800781-1.160156 1.722656 0 4.242187 1.082031 4.242187 2.5625zm0 0" fill="#2561a1"/><path d="m297.191406 75h-191.902344l94.710938-75zm0 0" fill="#e48e66"/><g fill="#2561a1"><path d="m294.648438 206.210938c.042968.140624.070312.289062.082031.4375 0 1.480468-2.28125 2.5625-4 2.5625-1 0-1.800781-.320313-2.039063-1.160157l-1.363281-5h-8.4375l-1.359375 5c-.242188.839844-1.042969 1.160157-2.042969 1.160157-1.71875 0-4-1.082032-4-2.5625.011719-.148438.039063-.296876.082031-.4375l7.441407-24.402344c.4375-1.398438 2.238281-2.078125 4.078125-2.078125s3.640625.679687 4.082031 2.078125zm-8.636719-7.960938-2.921875-10.71875-2.917969 10.71875zm0 0"/><path d="m288.769531 134.53125c.007813.148438-.019531.300781-.078125.4375l-8.242187 13.722656c-.105469.167969-.160157.359375-.160157.558594v10.039062c0 1.28125-1.558593 1.921876-3.117187 1.921876-1.5625 0-3.121094-.640626-3.121094-1.921876v-10.039062c0-.199219-.054687-.390625-.160156-.558594l-8.28125-13.722656c-.0625-.136719-.089844-.289062-.078125-.4375 0-1.480469 2.519531-2.5625 4.238281-2.5625.789063-.050781 1.519531.421875 1.800781 1.160156l5.601563 10.28125 5.558594-10.28125c.269531-.746094 1.007812-1.222656 1.800781-1.160156 1.71875 0 4.238281 1.082031 4.238281 2.5625zm0 0"/><path d="m269.53125 189.410156v10.359375c0 6.878907-4.320312 9.441407-9.839844 9.441407h-7.082031c-1.640625 0-2.71875-.882813-2.71875-1.882813v-25.476563c0-1 1.078125-1.882812 2.71875-1.882812h7.082031c5.519532 0 9.839844 2.5625 9.839844 9.441406zm-6.242188 10.359375v-10.359375c0-2.71875-1.359374-4-3.597656-4h-3.5625v18.359375h3.5625c2.238282 0 3.597656-1.28125 3.597656-4zm0 0"/><path d="m265.011719 141.171875v.199219c0 6.71875-4.320313 9.277344-9.839844 9.277344h-3.960937v8.640624c0 1.28125-1.5625 1.921876-3.121094 1.921876s-3.121094-.640626-3.121094-1.921876v-25.4375c.054688-.5625.328125-1.078124.765625-1.429687.4375-.355469.996094-.515625 1.554687-.453125h8.28125c5.28125 0 9.441407 2.480469 9.441407 9.203125zm-6.242188.679687v-.441406c0-2.71875-1.359375-4-3.597656-4h-3.960937v8.441406h3.960937c2.238281 0 3.597656-1.28125 3.597656-4zm0 0"/><path d="m245.570312 181.851562v25.4375c0 1.28125-1.558593 1.921876-3.121093 1.921876-1.558594 0-3.121094-.640626-3.121094-1.921876v-10.839843h-7.957031v10.839843c0 1.28125-1.5625 1.921876-3.121094 1.921876s-3.121094-.640626-3.121094-1.921876v-25.4375c0-1.320312 1.5625-1.882812 3.121094-1.882812s3.121094.5625 3.121094 1.882812v9.796876h7.957031v-9.796876c0-1.320312 1.5625-1.882812 3.121094-1.882812 1.5625 0 3.121093.5625 3.121093 1.882812zm0 0"/><path d="m242.25 141.171875v.199219c0 6.71875-4.320312 9.277344-9.839844 9.277344h-3.960937v8.640624c0 1.28125-1.558594 1.921876-3.121094 1.921876-1.558594 0-3.117187-.640626-3.117187-1.921876v-25.4375c.050781-.5625.328124-1.078124.761718-1.429687.4375-.355469 1-.515625 1.558594-.453125h8.277344c5.28125 0 9.441406 2.480469 9.441406 9.203125zm-6.238281.679687v-.441406c0-2.71875-1.363281-4-3.601563-4h-3.960937v8.441406h3.960937c2.238282 0 3.601563-1.28125 3.601563-4zm0 0"/><path d="m220.769531 179.96875c1.320313 0 1.878907 1.441406 1.878907 2.761719 0 1.519531-.679688 2.839843-1.878907 2.839843h-5.519531v21.71875c0 1.28125-1.558594 1.921876-3.121094 1.921876-1.558594 0-3.117187-.640626-3.117187-1.921876v-21.71875h-5.523438c-1.199219 0-1.878906-1.320312-1.878906-2.839843 0-1.320313.5625-2.761719 1.878906-2.761719zm0 0"/><path d="m219.808594 158.210938c.042968.140624.070312.289062.082031.4375 0 1.480468-2.28125 2.5625-4 2.5625-1 0-1.800781-.320313-2.039063-1.160157l-1.363281-5h-8.4375l-1.359375 5c-.242187.839844-1.042968 1.160157-2.042968 1.160157-1.71875 0-4-1.082032-4-2.5625.011718-.148438.039062-.296876.082031-.4375l7.441406-24.402344c.4375-1.398438 2.238281-2.078125 4.078125-2.078125s3.640625.679687 4.078125 2.078125zm-8.636719-7.960938-2.921875-10.71875-2.921875 10.71875zm0 0"/><path d="m200.488281 205.488281c.136719.21875.207031.46875.203125.722657 0 1.558593-2.082031 3.238281-3.921875 3.238281-.835937.039062-1.617187-.414063-2-1.160157l-5.480469-10.640624h-2.640624v9.640624c0 1.28125-1.558594 1.921876-3.117188 1.921876-1.5625 0-3.121094-.640626-3.121094-1.921876v-25.4375c-.003906-.507812.195313-.996093.558594-1.351562s.855469-.546875 1.359375-.53125h8.28125c5.480469 0 9.839844 2.042969 9.839844 8.5625 0 4.480469-2.039063 7.039062-4.839844 8.117188zm-6.277343-16.359375c0-2.800781-1.359376-3.71875-3.601563-3.71875h-3.960937v7.441406h3.960937c2.242187 0 3.601563-.921874 3.601563-3.722656zm0 0"/><path d="m194.328125 133.851562v25.4375c0 1.28125-1.558594 1.921876-3.117187 1.921876-1.5625 0-3.121094-.640626-3.121094-1.921876v-10.839843h-7.960938v10.839843c0 1.28125-1.558594 1.921876-3.117187 1.921876-1.5625 0-3.121094-.640626-3.121094-1.921876v-25.4375c0-1.320312 1.558594-1.882812 3.121094-1.882812 1.558593 0 3.117187.5625 3.117187 1.882812v9.796876h7.960938v-9.796876c0-1.320312 1.558594-1.882812 3.121094-1.882812 1.558593 0 3.117187.5625 3.117187 1.882812zm0 0"/><path d="m176.089844 181.851562v25.4375c0 1.28125-1.558594 1.921876-3.121094 1.921876-1.558594 0-3.117188-.640626-3.117188-1.921876v-25.4375c0-1.320312 1.558594-1.882812 3.117188-1.882812 1.5625 0 3.121094.5625 3.121094 1.882812zm0 0"/><path d="m166.609375 199.769531v.839844c0 6.320313-3.519531 8.601563-8.039063 8.601563h-8.878906c-1.679687 0-2.722656-.882813-2.722656-1.882813v-25.4375c0-1.28125 1.359375-1.921875 2.722656-1.921875h8.199219c4 0 8 1.441406 8 7.121094 0 3.238281-1.28125 5.359375-3.402344 6.28125 2.441407.917968 4.121094 2.398437 4.121094 6.398437zm-6.238281.320313v-.640625c0-2.71875-1.199219-3.679688-3.199219-3.679688h-4v8h4c2 0 3.199219-1.121093 3.199219-3.679687zm-.722656-11.878906c0-1.402344-.757813-2.800782-2.277344-2.800782h-4.199219v5.558594h4.199219c1.519531 0 2.277344-1.398438 2.277344-2.757812zm0 0"/></g><path d="m69.039062 205.210938 93.789063 57.878906-.039063.070312-154.808593 114.511719c-5.125-5.207031-7.9921878-12.226563-7.980469-19.53125v-195.210937h.519531zm0 0" fill="#f8ec7d"/><path d="m69.039062 101.878906v103.332032l-68.519531-42.28125h-.519531zm0 0" fill="#e48e66"/><path d="m134.851562 157.050781c-2.761718 0-5 2.238281-5 5v49.121094c0 2.757813 2.238282 5 5 5 2.761719 0 5-2.242187 5-5v-49.121094c0-2.761719-2.238281-5-5-5zm0 0" fill="#e48e66"/><path d="m106.25 174.609375c-2.761719 0-5 2.238281-5 5v31.5625c0 2.757813 2.238281 5 5 5s5-2.242187 5-5v-31.5625c0-2.761719-2.238281-5-5-5zm0 0" fill="#e48e66"/><path d="m124.691406 158.078125-.171875.292969c-.929687 11.027344-7.53125 19.820312-15.890625 21.238281h-4.757812c-9.019532-1.539063-16-11.660156-16-23.929687 0-13.320313 8.230468-24.121094 18.378906-24.121094 1.433594 0 2.859375.214844 4.230469.640625h.007812c.921875 11.539062 6.492188 21.261719 14.203125 25.878906zm0 0" fill="#e2d574"/><path d="m159.359375 128.808594c0 16.351562-9.300781 29.851562-21.328125 31.902344h-6.351562c-2.472657-.433594-4.84375-1.324219-6.988282-2.632813-7.710937-4.617187-13.28125-14.339844-14.203125-25.878906-.089843-1.109375-.136719-2.238281-.136719-3.390625 0-17.757813 10.96875-32.160156 24.5-32.160156 13.527344 0 24.507813 14.402343 24.507813 32.160156zm0 0" fill="#f8ec7d"/></svg>