<?xml version="1.0" encoding="utf-8"?>
<!-- Generator: Adobe Illustrator 24.3.0, SVG Export Plug-In . SVG Version: 6.00 Build 0)  -->
<svg version="1.1" id="Слой_1" xmlns="http://www.w3.org/2000/svg" xmlns:xlink="http://www.w3.org/1999/xlink" x="0px" y="0px"
	 viewBox="0 0 198 198" style="enable-background:new 0 0 198 198;" xml:space="preserve">
<style type="text/css">
	.st0{fill:#4C0556;}
	.st1{fill:#4C0556;stroke:#FFFFFF;stroke-miterlimit:10;}
	.st2{fill:none;stroke:#FFFFFF;stroke-miterlimit:10;}
	.st3{fill:#FFFFFF;stroke:#FFFFFF;stroke-miterlimit:10;}
	.st4{fill:#69775D;}
	.st5{fill:#EAC66E;}
	.st6{fill:none;stroke:#FFFFFF;stroke-width:0.25;stroke-miterlimit:10;}
	.st7{fill:#FFFFFF;}
	.st8{fill:none;}
</style>
<circle class="st0" cx="99" cy="99" r="99"/>
<path class="st1" d="M149,104H49c-4.4,0-8-3.6-8-8V40c0-4.4,3.6-8,8-8h100c4.4,0,8,3.6,8,8v56C157,100.4,153.4,104,149,104z"/>
<line class="st2" x1="41.5" y1="95.5" x2="156.5" y2="95.5"/>
<polygon class="st2" points="112.5,114.5 87.5,114.5 91.5,104.5 108.5,104.5 "/>
<rect x="49.5" y="37.5" class="st3" width="100" height="7"/>
<rect x="49.5" y="85.5" class="st3" width="100" height="7"/>
<rect x="49.5" y="48.5" class="st4" width="19" height="33"/>
<rect x="130.5" y="48.5" class="st4" width="19" height="33"/>
<rect x="74" y="48.5" class="st5" width="51.5" height="33"/>
<path class="st1" d="M32,106.9h15c2.2,0,4-1.8,4-4V68.1c0-2.2-1.8-4-4-4H32c-2.2,0-4,1.8-4,4v34.9C28,105.2,29.8,106.9,32,106.9z"/>
<line class="st2" x1="28" y1="101" x2="51" y2="101"/>
<rect x="36.2" y="103" class="st6" width="6.1" height="1.6"/>
<rect x="30.7" y="72.3" class="st4" width="17.7" height="5.1"/>
<rect x="30.6" y="66.7" class="st7" width="17.7" height="3.7"/>
<rect x="30.7" y="94.6" class="st7" width="17.7" height="3.7"/>
<rect x="30.6" y="88.4" class="st4" width="17.7" height="5.1"/>
<rect x="30.6" y="78.8" class="st5" width="17.7" height="8.1"/>
<path class="st1" d="M166.7,77.4h-35.2c-3.3,0-6,2.7-6,6v56.5c0,3.3,2.7,6,6,6h35.2c3.3,0,6-2.7,6-6V83.4
	C172.7,80,170,77.4,166.7,77.4z"/>
<line class="st8" x1="125.5" y1="139.9" x2="172.7" y2="139.9"/>
<rect x="130.5" y="82.9" class="st7" width="36.6" height="5.5"/>
<rect x="130.5" y="128.1" class="st7" width="36.6" height="5.5"/>
<line class="st2" x1="125.5" y1="139.9" x2="172.7" y2="139.9"/>
<rect x="130.5" y="90.9" class="st4" width="7.5" height="34.5"/>
<rect x="159.6" y="90.9" class="st4" width="7.5" height="34.5"/>
<rect x="140" y="90.9" class="st5" width="17" height="34.5"/>
</svg>
